# xmcd
#
# Track frame offsets: 
#        150
#        32088
#        48449
#        69187
#        107906
#        124525
#        144810
#        169737
#        197706
#        225639
#        251718
#        286490
#        315886
#
# Disc length: 4464 seconds
#
# Revision: 0
# Processed by: cddbd v1.5.2PL0 Copyright (c) Steve Scherf et al.
# Submitted via: ExactAudioCopyFreeDBPlugin 1.0
#
DISCID=ac116e0d
DTITLE=Selena Gomez - Come and Get It Remixes
DYEAR=2013
DGENRE=R&B
TTITLE0=Come and Get It - Cahill Club Remix
TTITLE1=Come and Get It - Cahill Edit
TTITLE2=Come and Get It - Robert Delong Remix
TTITLE3=Come and Get It - Fred Falke Club Remix
TTITLE4=Come and Get It - Fred Falke Radio Remix
TTITLE5=Come and Get It - DJ M3 Radio Remix
TTITLE6=Come and Get It - DJ M3 Mixshow Extended Remix
TTITLE7=Come and Get It - Dave Aude Club Remix
TTITLE8=Come and Get It - Dave Aude Club Remix - Str8 Intro
TTITLE9=Come and Get It - DJ Liam Keegan Club Remix
TTITLE10=Come and Get It - DJ Laszlo Remix
TTITLE11=Come and Get It - Cosmic Dawn Club Remix
TTITLE12=Come and Get It - Jump Smokers Extended Remix
EXTD=
EXTT0=
EXTT1=
EXTT2=
EXTT3=
EXTT4=
EXTT5=
EXTT6=
EXTT7=
EXTT8=
EXTT9=
EXTT10=
EXTT11=
EXTT12=
PLAYORDER=
